HIERARCHY
ROOT pelvis
{
	OFFSET 0.003123 -0.351407 0.012037
	CHANNELS 6 Xposition Yposition Zposition Zrotation Yrotation Xrotation 
	JOINT left_hip
	{
		OFFSET 0.058189 -0.092763 -0.026001
		CHANNELS 3 Zrotation Yrotation Xrotation
		JOINT left_knee
		{
			OFFSET 0.054695 -0.378753 -0.009396
			CHANNELS 3 Zrotation Yrotation Xrotation
			JOINT left_ankle
			{
				OFFSET -0.043453 -0.403059 -0.031876
				CHANNELS 3 Zrotation Yrotation Xrotation
				JOINT left_foot
				{
					OFFSET 0.047257 -0.057997 0.118216
					CHANNELS 3 Zrotation Yrotation Xrotation
					End Site
					{
						OFFSET 0.000000 0.000000 0.000000
					}
				}
			}
		}
	}
	JOINT right_hip
	{
		OFFSET -0.063267 -0.103908 -0.021250
		CHANNELS 3 Zrotation Yrotation Xrotation
		JOINT right_knee
		{
			OFFSET -0.044210 -0.362380 -0.016824
			CHANNELS 3 Zrotation Yrotation Xrotation
			JOINT right_ankle
			{
				OFFSET 0.015417 -0.410728 -0.020192
				CHANNELS 3 Zrotation Yrotation Xrotation
				JOINT right_foot
				{
					OFFSET -0.038812 -0.058328 0.119049
					CHANNELS 3 Zrotation Yrotation Xrotation
					End Site
					{
						OFFSET 0.000000 0.000000 0.000000
					}
				}
			}
		}
	}
	JOINT spine_1
	{
		OFFSET -0.002763 0.109891 -0.027618
		CHANNELS 3 Zrotation Yrotation Xrotation
		JOINT spine_2
		{
			OFFSET 0.009448 0.131853 -0.005940
			CHANNELS 3 Zrotation Yrotation Xrotation
			JOINT spine_3
			{
				OFFSET -0.011330 0.052235 0.028447
				CHANNELS 3 Zrotation Yrotation Xrotation
				JOINT neck
				{
					OFFSET -0.012164 0.165167 -0.031615
					CHANNELS 3 Zrotation Yrotation Xrotation
					JOINT head
					{
						OFFSET 0.024783 0.160452 0.020737
						CHANNELS 3 Zrotation Yrotation Xrotation
						End Site
						{
							OFFSET 0.000000 0.000000 0.000000
						}
					}
				}
				JOINT left_collar
				{
					OFFSET 0.046364 0.084944 -0.007220
					CHANNELS 3 Zrotation Yrotation Xrotation
					JOINT left_shoulder
					{
						OFFSET 0.119239 0.057728 -0.015461
						CHANNELS 3 Zrotation Yrotation Xrotation
						JOINT left_elbow
						{
							OFFSET 0.254123 -0.072151 -0.042459
							CHANNELS 3 Zrotation Yrotation Xrotation
							JOINT left_wrist
							{
								OFFSET 0.251987 0.023221 -0.002472
								CHANNELS 3 Zrotation Yrotation Xrotation
								JOINT left_index_1
								{
									OFFSET 0.101902 -0.008688 0.019351
									CHANNELS 3 Zrotation Yrotation Xrotation
									JOINT left_index_2
									{
										OFFSET 0.030149 -0.011154 0.001151
										CHANNELS 3 Zrotation Yrotation Xrotation
										JOINT left_index_3
										{
											OFFSET 0.006504 -0.021577 -0.002433
											CHANNELS 3 Zrotation Yrotation Xrotation
											End Site
											{
												OFFSET 0.000000 0.000000 0.000000
											}
										}
									}
								}
								JOINT left_middle_1
								{
									OFFSET 0.109398 -0.006328 -0.003981
									CHANNELS 3 Zrotation Yrotation Xrotation
									JOINT left_middle_2
									{
										OFFSET 0.026472 -0.015218 -0.004641
										CHANNELS 3 Zrotation Yrotation Xrotation
										JOINT left_middle_3
										{
											OFFSET 0.005022 -0.023347 -0.001911
											CHANNELS 3 Zrotation Yrotation Xrotation
											End Site
											{
												OFFSET 0.000000 0.000000 0.000000
											}
										}
									}
								}
								JOINT left_pinky_1
								{
									OFFSET 0.084047 -0.014539 -0.043750
									CHANNELS 3 Zrotation Yrotation Xrotation
									JOINT left_pinky_2
									{
										OFFSET 0.012124 -0.014448 -0.005375
										CHANNELS 3 Zrotation Yrotation Xrotation
										JOINT left_pinky_3
										{
											OFFSET 0.003798 -0.018853 0.000167
											CHANNELS 3 Zrotation Yrotation Xrotation
											End Site
											{
												OFFSET 0.000000 0.000000 0.000000
											}
										}
									}
								}
								JOINT left_ring_1
								{
									OFFSET 0.097444 -0.009268 -0.027345
									CHANNELS 3 Zrotation Yrotation Xrotation
									JOINT left_ring_2
									{
										OFFSET 0.023561 -0.016057 -0.001895
										CHANNELS 3 Zrotation Yrotation Xrotation
										JOINT left_ring_3
										{
											OFFSET 0.004257 -0.023548 0.000814
											CHANNELS 3 Zrotation Yrotation Xrotation
											End Site
											{
												OFFSET 0.000000 0.000000 0.000000
											}
										}
									}
								}
								JOINT left_thumb_1
								{
									OFFSET 0.040636 -0.017977 0.025611
									CHANNELS 3 Zrotation Yrotation Xrotation
									JOINT left_thumb_2
									{
										OFFSET 0.021637 -0.017639 0.011623
										CHANNELS 3 Zrotation Yrotation Xrotation
										JOINT left_thumb_3
										{
											OFFSET 0.024002 -0.008356 0.006548
											CHANNELS 3 Zrotation Yrotation Xrotation
											End Site
											{
												OFFSET 0.000000 0.000000 0.000000
											}
										}
									}
								}
							}
						}
					}
				}
				JOINT right_collar
				{
					OFFSET -0.047695 0.084339 -0.013400
					CHANNELS 3 Zrotation Yrotation Xrotation
					JOINT right_shoulder
					{
						OFFSET -0.102578 0.053524 -0.012669
						CHANNELS 3 Zrotation Yrotation Xrotation
						JOINT right_elbow
						{
							OFFSET -0.271150 -0.036492 -0.026467
							CHANNELS 3 Zrotation Yrotation Xrotation
							JOINT right_wrist
							{
								OFFSET -0.249267 -0.004533 -0.015325
								CHANNELS 3 Zrotation Yrotation Xrotation
								JOINT right_index_1
								{
									OFFSET -0.099881 -0.011783 0.019600
									CHANNELS 3 Zrotation Yrotation Xrotation
									JOINT right_index_2
									{
										OFFSET -0.030148 -0.011154 0.001151
										CHANNELS 3 Zrotation Yrotation Xrotation
										JOINT right_index_3
										{
											OFFSET -0.006505 -0.021577 -0.002432
											CHANNELS 3 Zrotation Yrotation Xrotation
											End Site
											{
												OFFSET 0.000000 0.000000 0.000000
											}
										}
									}
								}
								JOINT right_middle_1
								{
									OFFSET -0.107376 -0.009422 -0.003734
									CHANNELS 3 Zrotation Yrotation Xrotation
									JOINT right_middle_2
									{
										OFFSET -0.026472 -0.015218 -0.004641
										CHANNELS 3 Zrotation Yrotation Xrotation
										JOINT right_middle_3
										{
											OFFSET -0.005022 -0.023347 -0.001911
											CHANNELS 3 Zrotation Yrotation Xrotation
											End Site
											{
												OFFSET 0.000000 0.000000 0.000000
											}
										}
									}
								}
								JOINT right_pinky_1
								{
									OFFSET -0.082027 -0.017634 -0.043503
									CHANNELS 3 Zrotation Yrotation Xrotation
									JOINT right_pinky_2
									{
										OFFSET -0.012123 -0.014448 -0.005374
										CHANNELS 3 Zrotation Yrotation Xrotation
										JOINT right_pinky_3
										{
											OFFSET -0.003798 -0.018852 0.000167
											CHANNELS 3 Zrotation Yrotation Xrotation
											End Site
											{
												OFFSET 0.000000 0.000000 0.000000
											}
										}
									}
								}
								JOINT right_ring_1
								{
									OFFSET -0.095423 -0.012362 -0.027099
									CHANNELS 3 Zrotation Yrotation Xrotation
									JOINT right_ring_2
									{
										OFFSET -0.023561 -0.016057 -0.001895
										CHANNELS 3 Zrotation Yrotation Xrotation
										JOINT right_ring_3
										{
											OFFSET -0.004257 -0.023548 0.000816
											CHANNELS 3 Zrotation Yrotation Xrotation
											End Site
											{
												OFFSET 0.000000 0.000000 0.000000
											}
										}
									}
								}
								JOINT right_thumb_1
								{
									OFFSET -0.038613 -0.021074 0.025861
									CHANNELS 3 Zrotation Yrotation Xrotation
									JOINT right_thumb_2
									{
										OFFSET -0.021636 -0.017639 0.011623
										CHANNELS 3 Zrotation Yrotation Xrotation
										JOINT right_thumb_3
										{
											OFFSET -0.024004 -0.008353 0.006547
											CHANNELS 3 Zrotation Yrotation Xrotation
											End Site
											{
												OFFSET 0.000000 0.000000 0.000000
											}
										}
									}
								}
							}
						}
					}
				}
			}
		}
	}
}
MOTION
Frames: 4
Frame Time: 0.050000
0.040543 0.901937 -0.053528 -1.239791 2.935953 -18.195334 -2.499062 3.197052 20.113575 2.780514 0.101476 -2.444950 5.970335 -1.040378 -15.731610 0.000000 0.000000 0.000000 -9.294489 -0.733813 16.382086 9.652179 -0.936505 6.469890 -3.809146 2.483346 -15.454305 0.000000 0.000000 0.000000 -7.422532 -0.718805 8.699209 -5.489382 1.790483 -5.009681 10.352772 -2.735335 19.838083 3.058910 -1.876795 7.430768 0.000000 0.000000 0.000000 6.326116 -1.832371 1.307255 -55.297233 5.385646 -10.264549 -39.706700 -56.262472 28.869522 -2.297496 11.224091 -3.258606 -14.716130 7.495760 2.378937 -4.331464 0.359640 0.000049 0.000000 0.000000 0.000000 -18.625675 -0.977699 -3.181647 -22.402749 -2.732970 -9.152871 0.000000 0.000000 0.000000 -0.381754 -14.995171 -20.820362 -34.251074 -4.347584 -6.644440 0.000000 0.000000 0.000000 -19.846632 -6.753392 -4.372465 -25.453772 -6.905253 -11.603463 0.000000 0.000000 0.000000 22.759948 22.241139 13.068381 -16.826137 -6.886166 2.841075 0.000000 0.000000 0.000000 -8.605876 2.366150 1.942965 32.364185 -3.832498 -4.553645 17.626897 86.803501 13.931371 9.956366 9.082043 -18.358861 36.262531 -2.264051 2.453037 57.264680 -1.734395 0.433036 0.000000 0.000000 0.000000 65.020761 16.467683 -4.699439 20.817127 7.147962 -16.673244 0.000000 0.000000 0.000000 47.985317 38.080365 -33.792159 -20.013820 -1.102324 11.699067 0.000000 0.000000 0.000000 65.468032 33.289700 -1.457045 -13.745606 1.183164 -10.779264 0.000000 0.000000 0.000000 -2.586555 -21.678278 15.205032 -2.062362 4.954665 -2.860771 0.000000 0.000000 0.000000 
0.045960 0.921196 -0.009972 -0.545462 7.154221 -20.343600 -3.988960 2.774198 16.897156 4.161868 -2.291889 12.709297 4.520997 -3.029880 -13.102519 0.000000 0.000000 0.000000 -5.522888 -1.192910 13.421907 0.969321 0.284629 19.172563 -3.544301 -3.204703 -8.075874 0.000000 0.000000 0.000000 -11.220951 -0.782288 11.785864 -5.526138 1.825360 -5.504856 13.716252 -1.803088 23.800405 3.913392 -2.790427 10.428929 0.000000 0.000000 0.000000 8.043806 -4.924122 2.833585 -59.580058 -7.496585 -9.254466 -29.198460 -49.444730 19.598066 -19.462012 17.193486 4.308235 -57.680450 30.003005 -0.659391 -21.977115 -8.751973 -16.986728 0.000000 0.000000 0.000000 -76.620894 11.532370 -14.832655 16.193262 -3.081250 -13.296129 0.000000 0.000000 0.000000 -77.893763 -14.905839 -30.202212 36.113450 -0.824359 16.339301 0.000000 0.000000 0.000000 -78.651958 -8.923098 -9.316421 23.441351 1.599597 2.425095 0.000000 0.000000 0.000000 -14.469962 36.926748 41.041521 78.122946 13.838643 -16.923808 0.000000 0.000000 0.000000 -10.981984 4.128469 2.382581 41.000351 -1.769006 -4.977821 -94.783491 81.781965 -85.868072 34.944697 21.537333 -13.760753 153.549277 -32.827815 -35.870767 -68.446463 -32.227266 -90.466354 0.000000 0.000000 0.000000 125.036144 9.390429 -8.607760 -71.513156 2.767301 -0.448411 0.000000 0.000000 0.000000 78.820759 39.682451 -28.151675 -30.645085 0.541478 27.054469 0.000000 0.000000 0.000000 110.587745 36.046974 9.846306 -46.359764 -0.231327 17.299945 0.000000 0.000000 0.000000 20.043103 -39.100542 47.465254 -93.749440 -15.735688 -2.623637 0.000000 0.000000 0.000000 
0.026645 0.914588 0.009827 0.609505 3.506458 -18.329583 -2.824546 2.408407 14.709879 1.323085 -2.094183 15.467187 5.988742 0.669288 -14.073750 0.000000 0.000000 0.000000 -4.722193 -0.570345 7.006260 0.164522 0.829027 27.762571 -3.918150 -1.598934 -11.124491 0.000000 0.000000 0.000000 -8.112852 -0.702219 17.202594 -6.717241 1.923180 -6.942676 8.794984 -1.865180 23.574509 4.041836 -2.582105 9.463937 0.000000 0.000000 0.000000 9.422964 -5.529723 2.945361 -61.711855 -13.433707 -7.196134 -17.581267 -43.161839 11.962205 -33.598078 21.846272 18.217728 135.229918 43.094046 -88.773864 88.264083 21.527981 -148.908825 0.000000 0.000000 0.000000 -131.014334 33.013047 -43.327428 59.294750 -4.682983 -87.312221 0.000000 0.000000 0.000000 -96.030545 20.206045 -42.325311 26.814984 -0.053890 -19.245028 0.000000 0.000000 0.000000 -102.272898 7.123151 -26.855817 54.358694 8.852556 -26.305637 0.000000 0.000000 0.000000 -26.986706 38.765019 40.275031 98.780649 29.607901 0.256993 0.000000 0.000000 0.000000 -15.917707 3.654204 2.592910 50.277789 9.475204 -3.074767 -127.436398 83.110319 -121.808941 50.944049 21.330520 1.177350 169.061624 -10.469124 -11.103934 -106.560081 -1.682444 -16.918987 0.000000 0.000000 0.000000 146.595976 3.826840 -18.262583 -70.164039 3.274719 -8.671124 0.000000 0.000000 0.000000 116.141128 25.262600 -26.082641 -36.588449 1.729330 13.102668 0.000000 0.000000 0.000000 139.062732 29.951189 9.546826 -61.635296 -0.252974 7.284242 0.000000 0.000000 0.000000 66.448350 3.171925 27.815455 -129.895478 -28.450220 61.163866 0.000000 0.000000 0.000000 
0.028647 0.912251 -0.011292 -0.419907 2.654191 -13.445679 0.218977 1.561545 11.209144 -2.912162 -0.608304 9.603066 5.761188 0.049739 -14.266613 0.000000 0.000000 0.000000 -4.545912 -0.401854 5.477228 1.758914 0.238317 18.300100 -4.225512 -0.900277 -13.099262 0.000000 0.000000 0.000000 -2.534481 -0.663581 10.304311 -6.569472 1.456517 -8.199079 5.583190 -2.619580 26.214372 2.853021 -2.721074 12.116700 0.000000 0.000000 0.000000 4.232270 -2.657148 1.508433 -56.894916 -10.883393 -7.569041 -17.716110 -42.753946 11.925946 -23.563394 10.266628 17.132486 -1.683400 12.888698 7.745875 -58.100846 18.059289 -3.285065 0.000000 0.000000 0.000000 -50.861416 19.842254 -8.257768 -11.031785 -1.404392 -10.069240 0.000000 0.000000 0.000000 -70.780955 7.763571 -32.576077 33.969224 4.428010 7.143943 0.000000 0.000000 0.000000 -62.873253 9.903556 -11.502541 11.116895 0.148148 -2.785879 0.000000 0.000000 0.000000 8.449797 16.851265 20.377966 18.238336 -2.240046 -7.785187 0.000000 0.000000 0.000000 -12.587193 2.685086 2.187040 45.635114 8.935218 -3.429954 -175.531757 81.343283 -176.306063 8.421482 6.133357 -3.634766 125.129718 18.742431 20.114952 -69.451092 2.867797 12.066204 0.000000 0.000000 0.000000 125.322246 11.770683 -10.826133 -53.088154 -0.136716 -15.042153 0.000000 0.000000 0.000000 120.542323 11.440865 -26.037827 -37.395222 0.310244 3.537050 0.000000 0.000000 0.000000 129.381448 28.221488 8.478853 -59.081181 -4.391496 -4.350421 0.000000 0.000000 0.000000 47.892703 15.442535 16.185381 -86.817953 -39.371843 41.012216 0.000000 0.000000 0.000000 
